{"accessors":[{"bufferView":0,"componentType":5126,"count":43,"max":[0.8698261380195618,0.8652696013450623,0.31166666746139526],"min":[-0.8698261380195618,-0.8652696013450623,-3.8021305215352186e-08],"normalized":false,"type":"VEC3"},{"bufferView":1,"componentType":5126,"count":43,"max":[3.0518509447574615e-05,0.0,1.0,1.0],"min":[-1.5260186046361923e-05,-1.0,-1.0,-1.0],"normalized":false,"type":"VEC4"},{"bufferView":2,"componentType":5126,"count":43,"max":[1.0,1.0,1.0],"min":[-1.0,-1.0,-1.5259021893143654e-05],"normalized":false,"type":"VEC3"},{"bufferView":3,"componentType":5126,"count":43,"max":[0.9165832996368408,0.9999001622200012],"min":[0.6666332483291626,0.7486337423324585],"normalized":false,"type":"VEC2"},{"bufferView":4,"componentType":5121,"count":72,"max":[42],"min":[0],"normalized":false,"type":"SCALAR"},{"bufferView":5,"componentType":5126,"count":4,"max":[0.5849851369857788,0.5803723931312561,0.21948693692684174],"min":[-0.5849882960319519,-0.5803723931312561,0.21948690712451935],"normalized":false,"type":"VEC3"},{"bufferView":6,"componentType":5126,"count":4,"max":[-1.5260186046361923e-05,-1.0,7.630093023180962e-05,-1.0],"min":[-1.5260186046361923e-05,-1.0,7.630093023180962e-05,-1.0],"normalized":false,"type":"VEC4"},{"bufferView":7,"componentType":5126,"count":4,"max":[-1.5259254723787308e-05,-1.5259254723787308e-05,1.0],"min":[-1.5259254723787308e-05,-1.5259254723787308e-05,1.0],"normalized":false,"type":"VEC3"},{"bufferView":8,"componentType":5126,"count":4,"max":[0.8729457855224609,0.956262469291687],"min":[0.7102708220481873,0.7922713756561279],"normalized":false,"type":"VEC2"},{"bufferView":9,"componentType":5121,"count":6,"max":[3],"min":[0],"normalized":false,"type":"SCALAR"}],"asset":{"generator":"Godot Engine v4.6.3.stable.steam@7d41c59c457bd5a245092b4e7eb2d833e3b3f8c3","version":"2.0"},"bufferViews":[{"buffer":0,"byteLength":516,"byteStride":12,"target":34962},{"buffer":0,"byteLength":688,"byteOffset":516,"byteStride":16,"target":34962},{"buffer":0,"byteLength":516,"byteOffset":1204,"byteStride":12,"target":34962},{"buffer":0,"byteLength":344,"byteOffset":1720,"byteStride":8,"target":34962},{"buffer":0,"byteLength":72,"byteOffset":2064,"target":34963},{"buffer":0,"byteLength":48,"byteOffset":2136,"byteStride":12,"target":34962},{"buffer":0,"byteLength":64,"byteOffset":2184,"byteStride":16,"target":34962},{"buffer":0,"byteLength":48,"byteOffset":2248,"byteStride":12,"target":34962},{"buffer":0,"byteLength":32,"byteOffset":2296,"byteStride":8,"target":34962},{"buffer":0,"byteLength":6,"byteOffset":2328,"target":34963}],"buffers":[{"byteLength":2334,"uri":"light0.bin"}],"extensions":{"KHR_lights_punctual":{"lights":[{"intensity":3.0,"range":12.0,"spot":{"innerConeAngle":1.1423972845077515,"outerConeAngle":1.3962633609771729},"type":"spot"}]}},"extensionsUsed":["GODOT_single_root","KHR_lights_punctual"],"images":[{"uri":"textures%2F.png"},{"name":"MRAo_PanelTrim","uri":"textures%2FMRAo_PanelTrim.png"},{"name":"NORMAL_PanelTrim","uri":"textures%2FNORMAL_PanelTrim.png"}],"materials":[{"name":"PanelTrim_Mat","normalTexture":{"index":2,"scale":1.0},"occlusionTexture":{"index":1},"pbrMetallicRoughness":{"baseColorFactor":[1.0,1.0,1.0,1.0],"baseColorTexture":{"index":0},"metallicFactor":1.0,"metallicRoughnessTexture":{"index":1},"roughnessFactor":1.0}},{"name":"InstancedEmissionShader_Material"}],"meshes":[{"name":"SciFiLikeTiles_Panel_Light","primitives":[{"attributes":{"NORMAL":2,"POSITION":0,"TANGENT":1,"TEXCOORD_0":3},"indices":4,"material":0,"mode":4},{"attributes":{"NORMAL":7,"POSITION":5,"TANGENT":6,"TEXCOORD_0":8},"indices":9,"material":1,"mode":4}]}],"nodes":[{"children":[1],"name":"Node3D"},{"children":[2],"mesh":0,"name":"Panel_Light16","rotation":[0.7071067690849304,0.0,0.0,0.7071067690849304],"translation":[52.526023864746094,-7.175317764282227,-81.37095642089844]},{"extensions":{"KHR_lights_punctual":{"light":0}},"name":"SpotLight3D","rotation":[1.0,0.0,0.0,-4.3711398944878965e-08],"translation":[0.0,0.0,0.5024880170822144]}],"samplers":[{"magFilter":9729,"minFilter":9987,"wrapS":10497,"wrapT":10497}],"scene":0,"scenes":[{"nodes":[0]}],"textures":[{"sampler":0,"source":0},{"sampler":0,"source":1},{"sampler":0,"source":2}]}